<svg width="11" height="11" viewBox="0 0 11 11" fill="none" xmlns="http://www.w3.org/2000/svg">
<path d="M0.760335 9.56249C0.760335 9.937 1.06291 10.2396 1.43742 10.2396H9.56242C9.93693 10.2396 10.2395 9.937 10.2395 9.56249V3.46874H0.760335V9.56249ZM4.14575 5.07681C4.14575 4.93716 4.26001 4.82291 4.39966 4.82291H6.60018C6.73983 4.82291 6.85409 4.93716 6.85409 5.07681V5.24608C6.85409 5.38573 6.73983 5.49999 6.60018 5.49999H4.39966C4.26001 5.49999 4.14575 5.38573 4.14575 5.24608V5.07681ZM10.2395 0.760406H0.760335C0.385824 0.760406 0.083252 1.06298 0.083252 1.43749V2.45311C0.083252 2.63931 0.235596 2.79166 0.421794 2.79166H10.578C10.7642 2.79166 10.9166 2.63931 10.9166 2.45311V1.43749C10.9166 1.06298 10.614 0.760406 10.2395 0.760406Z" fill="#57606A"/>
</svg>
