<svg width="17" height="17" viewBox="0 0 17 17" fill="none" xmlns="http://www.w3.org/2000/svg">
<path d="M5.84379 5.51172V4.40495C5.84379 4.22234 5.9932 4.07292 6.17582 4.07292H7.28259C7.46521 4.07292 7.61462 4.22234 7.61462 4.40495V5.51172C7.61462 5.69434 7.46521 5.84376 7.28259 5.84376H6.17582C5.9932 5.84376 5.84379 5.69434 5.84379 5.51172ZM9.71749 5.84376H10.8243C11.0069 5.84376 11.1563 5.69434 11.1563 5.51172V4.40495C11.1563 4.22234 11.0069 4.07292 10.8243 4.07292H9.71749C9.53487 4.07292 9.38546 4.22234 9.38546 4.40495V5.51172C9.38546 5.69434 9.53487 5.84376 9.71749 5.84376ZM6.17582 8.50001H7.28259C7.46521 8.50001 7.61462 8.35059 7.61462 8.16797V7.0612C7.61462 6.87859 7.46521 6.72917 7.28259 6.72917H6.17582C5.9932 6.72917 5.84379 6.87859 5.84379 7.0612V8.16797C5.84379 8.35059 5.9932 8.50001 6.17582 8.50001ZM9.71749 8.50001H10.8243C11.0069 8.50001 11.1563 8.35059 11.1563 8.16797V7.0612C11.1563 6.87859 11.0069 6.72917 10.8243 6.72917H9.71749C9.53487 6.72917 9.38546 6.87859 9.38546 7.0612V8.16797C9.38546 8.35059 9.53487 8.50001 9.71749 8.50001ZM7.61462 10.8242V9.71745C7.61462 9.53484 7.46521 9.38542 7.28259 9.38542H6.17582C5.9932 9.38542 5.84379 9.53484 5.84379 9.71745V10.8242C5.84379 11.0068 5.9932 11.1563 6.17582 11.1563H7.28259C7.46521 11.1563 7.61462 11.0068 7.61462 10.8242ZM9.71749 11.1563H10.8243C11.0069 11.1563 11.1563 11.0068 11.1563 10.8242V9.71745C11.1563 9.53484 11.0069 9.38542 10.8243 9.38542H9.71749C9.53487 9.38542 9.38546 9.53484 9.38546 9.71745V10.8242C9.38546 11.0068 9.53487 11.1563 9.71749 11.1563ZM14.698 14.5872V15.5833H2.30212V14.5872C2.30212 14.4046 2.45154 14.2552 2.63416 14.2552H3.17371V2.08073C3.17371 1.71273 3.46977 1.41667 3.83777 1.41667H13.1623C13.5303 1.41667 13.8264 1.71273 13.8264 2.08073V14.2552H14.3659C14.5485 14.2552 14.698 14.4046 14.698 14.5872ZM4.50183 14.2275H7.61462V12.3737C7.61462 12.1911 7.76404 12.0417 7.94665 12.0417H9.05343C9.23604 12.0417 9.38546 12.1911 9.38546 12.3737V14.2275H12.4982V2.77247L4.51567 2.7448L4.50183 14.2275Z" fill="#24292F"/>
</svg>
