<svg width="9" height="10" viewBox="0 0 9 10" fill="none" xmlns="http://www.w3.org/2000/svg">
<path fill-rule="evenodd" clip-rule="evenodd" d="M2.14275 1.60658C2.14275 1.74865 2.08632 1.8849 1.98585 1.98536C1.88539 2.08582 1.74914 2.14226 1.60706 2.14226C1.46499 2.14226 1.32874 2.08582 1.22827 1.98536C1.12782 1.8849 1.07138 1.74865 1.07138 1.60658C1.07138 1.4645 1.12782 1.32825 1.22827 1.22779C1.32874 1.12732 1.46499 1.07089 1.60706 1.07089C1.74914 1.07089 1.88539 1.12732 1.98585 1.22779C2.08632 1.32825 2.14275 1.4645 2.14275 1.60658ZM2.14275 3.12221C2.50017 2.99585 2.80141 2.7472 2.99323 2.42021C3.18505 2.09322 3.25509 1.70894 3.19098 1.3353C3.12688 0.961665 2.93275 0.622711 2.6429 0.378367C2.35306 0.134015 1.98616 0 1.60706 0C1.22797 0 0.861072 0.134015 0.571229 0.378367C0.281387 0.622711 0.0872537 0.961665 0.0231498 1.3353C-0.0409612 1.70894 0.0290852 2.09322 0.220904 2.42021C0.412723 2.7472 0.713958 2.99585 1.07138 3.12221V3.74932C1.07138 4.17554 1.2407 4.5843 1.54207 4.88569C1.84346 5.18707 2.25222 5.35639 2.67844 5.35639H3.74981V6.8763C3.3922 7.00265 3.09077 7.25143 2.89882 7.57855C2.70687 7.90568 2.63675 8.29016 2.70086 8.664C2.76497 9.03784 2.95918 9.37696 3.24916 9.62145C3.53914 9.86586 3.90621 10 4.2855 10C4.66479 10 5.03187 9.86586 5.32185 9.62145C5.61182 9.37696 5.80606 9.03784 5.87013 8.664C5.93427 8.29016 5.86413 7.90568 5.67219 7.57855C5.48023 7.25143 5.1788 7.00265 4.82119 6.8763V5.35639H5.89256C6.31875 5.35639 6.72752 5.18707 7.02893 4.88569C7.33034 4.5843 7.49962 4.17554 7.49962 3.74932V3.12221C7.85703 2.99585 8.1583 2.7472 8.35008 2.42021C8.54193 2.09322 8.61199 1.70894 8.54785 1.3353C8.48371 0.961665 8.28965 0.622711 7.99974 0.378367C7.7099 0.134015 7.34306 0 6.96393 0C6.58481 0 6.21797 0.134015 5.92813 0.378367C5.63826 0.622711 5.44413 0.961665 5.38002 1.3353C5.31591 1.70894 5.38596 2.09322 5.57778 2.42021C5.76957 2.7472 6.07084 2.99585 6.42825 3.12221V3.74932C6.42825 3.8914 6.37182 4.02765 6.27133 4.12811C6.1709 4.22857 6.03462 4.28501 5.89256 4.28501H2.67844C2.53637 4.28501 2.40012 4.22857 2.29965 4.12811C2.19919 4.02765 2.14275 3.8914 2.14275 3.74932V3.12221ZM4.82119 8.39194C4.82119 8.534 4.76475 8.67028 4.66429 8.7707C4.56383 8.8712 4.42758 8.92763 4.2855 8.92763C4.14343 8.92763 4.00718 8.8712 3.90671 8.7707C3.80625 8.67028 3.74981 8.534 3.74981 8.39194C3.74981 8.24987 3.80625 8.1136 3.90671 8.01317C4.00718 7.91268 4.14343 7.85625 4.2855 7.85625C4.42758 7.85625 4.56383 7.91268 4.66429 8.01317C4.76475 8.1136 4.82119 8.24987 4.82119 8.39194ZM6.96393 2.14226C7.106 2.14226 7.24228 2.08582 7.3427 1.98536C7.4432 1.8849 7.49962 1.74865 7.49962 1.60658C7.49962 1.4645 7.4432 1.32825 7.3427 1.22779C7.24228 1.12732 7.106 1.07089 6.96393 1.07089C6.82187 1.07089 6.68559 1.12732 6.58517 1.22779C6.48467 1.32825 6.42825 1.4645 6.42825 1.60658C6.42825 1.74865 6.48467 1.8849 6.58517 1.98536C6.68559 2.08582 6.82187 2.14226 6.96393 2.14226Z" fill="#57606A"/>
</svg>
