<svg width="16" height="16" viewBox="0 0 16 16" fill="none" xmlns="http://www.w3.org/2000/svg">
<path d="M9.83889 6.16122C11.3948 7.71875 11.3734 10.2158 9.84827 11.7495C9.8454 11.7526 9.84202 11.756 9.83889 11.7591L8.08889 13.5091C6.54541 15.0526 4.03424 15.0524 2.49099 13.5091C0.947502 11.9659 0.947502 9.45445 2.49099 7.91122L3.45729 6.94492C3.71354 6.68867 4.15484 6.85898 4.16807 7.22112C4.18494 7.68263 4.2677 8.1463 4.42041 8.59406C4.47213 8.74567 4.43518 8.91338 4.3219 9.02666L3.98109 9.36747C3.25125 10.0973 3.22836 11.2857 3.95101 12.0227C4.6808 12.7669 5.88033 12.7713 6.61572 12.036L8.36572 10.2862C9.09986 9.55208 9.09678 8.36546 8.36572 7.6344C8.26934 7.5382 8.17225 7.46346 8.09642 7.41125C8.04277 7.37441 7.99848 7.32554 7.96707 7.26854C7.93566 7.21155 7.918 7.148 7.91551 7.08297C7.9052 6.80778 8.0027 6.52422 8.22014 6.30677L8.76843 5.75846C8.9122 5.61469 9.13775 5.59703 9.30447 5.71339C9.49539 5.84671 9.67423 5.99656 9.83889 6.16122V6.16122ZM13.5091 2.49087C11.9658 0.947587 9.45465 0.947378 7.91116 2.49087L6.16116 4.24086C6.15804 4.24399 6.15465 4.24737 6.15179 4.2505C4.62664 5.78414 4.60526 8.28124 6.16116 9.83877C6.32582 10.0034 6.50464 10.1533 6.69556 10.2866C6.86228 10.4029 7.08786 10.3853 7.23161 10.2415L7.77989 9.6932C7.99733 9.47575 8.09483 9.19218 8.08452 8.917C8.08203 8.85197 8.06437 8.78842 8.03296 8.73142C8.00155 8.67443 7.95726 8.62556 7.90361 8.58872C7.82778 8.5365 7.73069 8.46176 7.63431 8.36557C6.90325 7.6345 6.90017 6.44789 7.63431 5.71375L9.38431 3.96401C10.1197 3.22862 11.3192 3.23305 12.049 3.97729C12.7717 4.71427 12.7488 5.90266 12.0189 6.6325L11.6781 6.9733C11.5649 7.08659 11.5279 7.25429 11.5796 7.40591C11.7323 7.85367 11.8151 8.31734 11.832 8.77885C11.8452 9.14098 12.2865 9.31129 12.5427 9.05505L13.509 8.08874C15.0526 6.54554 15.0526 4.03409 13.5091 2.49087V2.49087Z" fill="#24292F"/>
</svg>
