<svg width="11" height="11" viewBox="0 0 11 11" fill="none" xmlns="http://www.w3.org/2000/svg">
<path fill-rule="evenodd" clip-rule="evenodd" d="M5.31498 1.11194e-07C5.41543 -6.44511e-05 5.51388 0.0279872 5.5992 0.0809806C5.68452 0.133974 5.75331 0.209793 5.79777 0.299856L7.14783 3.03658L10.1679 3.4756C10.2673 3.49003 10.3606 3.53195 10.4373 3.59664C10.514 3.66131 10.5712 3.74618 10.6022 3.84162C10.6333 3.93707 10.637 4.03931 10.613 4.13676C10.589 4.23421 10.5382 4.32301 10.4663 4.39311L8.28126 6.52366L8.79704 9.53083C8.81404 9.62976 8.80306 9.73148 8.76526 9.82452C8.72746 9.91756 8.6644 9.99812 8.58319 10.0572C8.50199 10.1162 8.40586 10.1513 8.30572 10.1586C8.20558 10.1658 8.10543 10.145 8.01655 10.0983L5.31498 8.67789L2.61341 10.0983C2.52459 10.1449 2.42451 10.1658 2.32445 10.1585C2.2244 10.1513 2.12836 10.1162 2.04718 10.0573C1.96601 9.99834 1.90293 9.91785 1.86508 9.82495C1.82721 9.73205 1.81607 9.63047 1.83292 9.53155L2.34942 6.52295L0.162912 4.39311C0.0908651 4.32304 0.0398845 4.23419 0.0157475 4.13663C-0.00839018 4.03907 -0.00471873 3.9367 0.0263444 3.84112C0.0574082 3.74554 0.114622 3.66057 0.191503 3.59584C0.268384 3.53111 0.361856 3.48921 0.461332 3.47489L3.48141 3.03658L4.8322 0.299856C4.87666 0.209793 4.94545 0.133974 5.03077 0.0809806C5.1161 0.0279872 5.21455 -6.44511e-05 5.31498 1.11194e-07ZM5.31498 1.75394L4.32144 3.76614C4.28286 3.84426 4.22588 3.91184 4.15541 3.96307C4.08493 4.01431 4.00306 4.04766 3.91685 4.06025L1.69519 4.38306L3.30207 5.94978C3.36459 6.01065 3.41137 6.08582 3.43837 6.16881C3.46536 6.25179 3.47177 6.34009 3.45702 6.4261L3.07826 8.63844L5.06463 7.59396C5.14184 7.55336 5.22776 7.5322 5.31498 7.5322C5.40222 7.5322 5.48813 7.55336 5.56534 7.59396L7.55242 8.63844L7.17222 6.4261C7.15751 6.34009 7.1639 6.25179 7.19087 6.16881C7.21792 6.08582 7.26469 6.01065 7.32717 5.94978L8.93405 4.38378L6.71312 4.06097C6.62691 4.04837 6.54504 4.01502 6.47457 3.96379C6.40409 3.91256 6.34711 3.84497 6.30853 3.76685L5.31498 1.75323V1.75394Z" fill="#57606A"/>
</svg>
