<svg width="18" height="18" viewBox="0 0 18 18" fill="none" xmlns="http://www.w3.org/2000/svg">
<path d="M14.9582 5.94478C14.9677 6.07802 14.9677 6.21129 14.9677 6.34454C14.9677 10.4086 11.8744 15.0914 6.22083 15.0914C4.47906 15.0914 2.86105 14.5869 1.5 13.7113C1.74747 13.7399 1.98539 13.7494 2.24239 13.7494C3.67955 13.7494 5.00254 13.264 6.05902 12.4359C4.70749 12.4074 3.57487 11.5222 3.18464 10.3039C3.37501 10.3325 3.56535 10.3515 3.76524 10.3515C4.04125 10.3515 4.31729 10.3134 4.57425 10.2468C3.16562 9.96128 2.10911 8.72398 2.10911 7.22969V7.19163C2.51836 7.42006 2.99429 7.56282 3.4987 7.58184C2.67065 7.02979 2.12816 6.08754 2.12816 5.02154C2.12816 4.45049 2.28041 3.92701 2.54693 3.47015C4.06026 5.33564 6.33503 6.55389 8.88577 6.68717C8.83819 6.45874 8.80963 6.22082 8.80963 5.98287C8.80963 4.28868 10.1802 2.90862 11.8839 2.90862C12.769 2.90862 13.5685 3.27981 14.1301 3.87943C14.8249 3.74619 15.4911 3.48919 16.0812 3.13704C15.8528 3.85089 15.3674 4.45052 14.7297 4.8312C15.3484 4.76461 15.948 4.59325 16.5 4.35533C16.0813 4.96444 15.5578 5.50694 14.9582 5.94478V5.94478Z" fill="#24292F"/>
</svg>
